<svg xmlns="http://www.w3.org/2000/svg" viewBox="0 0 512 512" role="img" aria-label="Dino Frog">
<defs>
</defs>
<ellipse cx="256" cy="470" rx="150" ry="24" fill="#073d47" opacity=".22"/>
<g>
<path d="M184 87 202 29 232 80 259 16 286 80 319 30 331 96" fill="#f4ff78" stroke="#276746" stroke-width="14" stroke-linejoin="round"/>
<g stroke="#276746" stroke-width="14" stroke-linejoin="round">
 <ellipse cx="132" cy="407" rx="96" ry="45" fill="#55b94f"/><ellipse cx="380" cy="407" rx="96" ry="45" fill="#55b94f"/>
 <ellipse cx="256" cy="346" rx="128" ry="116" fill="#7dce50"/><ellipse cx="256" cy="369" rx="70" ry="70" fill="#eaffae" opacity=".72"/>
 <path d="M109 214Q114 117 192 104Q256 65 320 104Q398 117 403 214Q413 294 338 324Q256 358 174 324Q99 294 109 214Z" fill="#7dce50"/>
 <ellipse cx="172" cy="137" rx="63" ry="71" fill="#a6eb58"/><ellipse cx="340" cy="137" rx="63" ry="71" fill="#a6eb58"/>
 <ellipse cx="174" cy="142" rx="39" ry="46" fill="#fff"/><ellipse cx="338" cy="142" rx="39" ry="46" fill="#fff"/>
 <ellipse cx="181" cy="150" rx="22" ry="31" fill="#20382d"/><ellipse cx="331" cy="150" rx="22" ry="31" fill="#20382d"/>
 <path d="M177 245Q256 314 335 245" fill="#234735"/>
 <path d="M206 265l20 29 20-24 20 24 20-24 20 25 18-31" fill="#fff" stroke-width="8"/>
</g>
<circle cx="149" cy="236" r="27" fill="#ff8c8c" opacity=".28"/><circle cx="363" cy="236" r="27" fill="#ff8c8c" opacity=".28"/></g>
</svg>