<svg xmlns="http://www.w3.org/2000/svg" viewBox="0 0 512 512" role="img" aria-label="Dragon Frog">
<defs>
</defs>
<ellipse cx="256" cy="470" rx="150" ry="24" fill="#073d47" opacity=".22"/>
<g>
<path d="M135 309Q44 226 60 368Q103 328 149 368M377 309Q468 226 452 368Q409 328 363 368" fill="#ef6a3e" stroke="#7c2d2a" stroke-width="15" stroke-linejoin="round"/>
<g stroke="#7c2d2a" stroke-width="14" stroke-linejoin="round">
 <ellipse cx="135" cy="407" rx="94" ry="43" fill="#e85d35"/><ellipse cx="377" cy="407" rx="94" ry="43" fill="#e85d35"/>
 <ellipse cx="256" cy="345" rx="122" ry="111" fill="#ee693a"/><path d="M221 304h70l-13 117h-44Z" fill="#ffe39a"/>
 <path d="M112 214Q119 120 193 103Q256 68 319 103Q393 120 400 214Q408 292 338 321Q256 352 174 321Q104 292 112 214Z" fill="#ee693a"/>
 <ellipse cx="176" cy="138" rx="62" ry="69" fill="#ff9a3d"/><ellipse cx="336" cy="138" rx="62" ry="69" fill="#ff9a3d"/>
 <ellipse cx="177" cy="143" rx="38" ry="44" fill="#fff"/><ellipse cx="335" cy="143" rx="38" ry="44" fill="#fff"/>
 <ellipse cx="182" cy="151" rx="19" ry="29" fill="#3b251e"/><ellipse cx="330" cy="151" rx="19" ry="29" fill="#3b251e"/>
 <path d="M190 245Q256 294 322 245" fill="none"/><path d="M219 268l18 23 19-21 19 21 19-23" fill="#fff5d0"/>
</g>
<path d="M158 100 118 39 196 82M354 100 394 39 316 82" fill="#fff0aa" stroke="#7c2d2a" stroke-width="15"/>
<path d="M201 89 221 39 244 84 267 27 291 84 316 39 330 96" fill="#ffcf48" stroke="#7c2d2a" stroke-width="12" stroke-linejoin="round"/></g>
</svg>