<svg xmlns="http://www.w3.org/2000/svg" viewBox="0 0 512 512" role="img" aria-label="King Frog">
<defs>
  <radialGradient id="halo" cx="32%" cy="18%" r="78%"><stop offset="0" stop-color="#fff5a6" stop-opacity=".95"/><stop offset=".42" stop-color="#d6ef65" stop-opacity=".65"/><stop offset="1" stop-color="#70b944" stop-opacity="0"/></radialGradient>
  <linearGradient id="body" x1="0" y1="0" x2="0" y2="1"><stop stop-color="#d6ef65"/><stop offset="1" stop-color="#70b944"/></linearGradient>
  <filter id="shadow" x="-40%" y="-40%" width="180%" height="190%"><feDropShadow dx="0" dy="16" stdDeviation="12" flood-color="#062d31" flood-opacity=".34"/></filter>
  <filter id="soft" x="-30%" y="-30%" width="160%" height="160%"><feGaussianBlur stdDeviation="12"/></filter>
  <linearGradient id="shine" x1="0" y1="0" x2="1" y2="1"><stop stop-color="#fff" stop-opacity=".8"/><stop offset="1" stop-color="#fff" stop-opacity="0"/></linearGradient>
</defs>
<ellipse cx="256" cy="470" rx="150" ry="24" fill="#073d47" opacity=".22" filter="url(#soft)"/>
<circle cx="170" cy="128" r="190" fill="url(#halo)" opacity=".62"/>
<g filter="url(#shadow)">
<path d="M95 386Q126 300 172 284L213 430H101Z" fill="#9a1734" stroke="#571026" stroke-width="14"/><path d="M417 386Q386 300 340 284L299 430H411Z" fill="#9a1734" stroke="#571026" stroke-width="14"/>
<path d="M129 306Q256 257 383 306L353 438H159Z" fill="#fff3da" stroke="#7d4b25" stroke-width="14"/>
<g stroke="#6f4b20" stroke-width="14" stroke-linejoin="round">
 <ellipse cx="147" cy="407" rx="94" ry="43" fill="#7bc34d"/><ellipse cx="365" cy="407" rx="94" ry="43" fill="#7bc34d"/>
 <ellipse cx="256" cy="346" rx="122" ry="112" fill="url(#body)"/><ellipse cx="256" cy="366" rx="66" ry="72" fill="#fff4b8" opacity=".72"/>
 <path d="M112 214Q118 125 193 112Q256 72 319 112Q394 125 400 214Q409 292 338 321Q256 352 174 321Q103 292 112 214Z" fill="url(#body)"/>
 <ellipse cx="176" cy="139" rx="61" ry="67" fill="#c6e85b"/><ellipse cx="336" cy="139" rx="61" ry="67" fill="#c6e85b"/>
 <path d="M139 145Q176 121 214 144" fill="#fff"/><path d="M298 144Q336 121 373 145" fill="#fff"/>
 <ellipse cx="183" cy="148" rx="24" ry="28" fill="#2a3327"/><ellipse cx="329" cy="148" rx="24" ry="28" fill="#2a3327"/>
 <path d="M191 248Q256 278 321 248" fill="none" stroke="#493b20"/>
</g>
<path d="M149 105 171 31 224 84 271 19 321 83 374 30 391 107Z" fill="#ffd74c" stroke="#764e1f" stroke-width="14" stroke-linejoin="round"/>
<circle cx="172" cy="56" r="14" fill="#ff6678"/><circle cx="272" cy="48" r="14" fill="#64caff"/><circle cx="372" cy="56" r="14" fill="#ff6678"/>
<path d="M125 317Q77 347 96 406" fill="none" stroke="#6f4b20" stroke-width="30"/><circle cx="79" cy="316" r="24" fill="#ffd74c" stroke="#764e1f" stroke-width="10"/><path d="M78 335v95" stroke="#764e1f" stroke-width="13"/></g>
</svg>