<svg xmlns="http://www.w3.org/2000/svg" viewBox="0 0 512 512" role="img" aria-label="Rockstar Frog">
<defs>
<linearGradient id="body" x1="0" y1="0" x2="0" y2="1"><stop stop-color="#92e95c"/><stop offset="1" stop-color="#4ba848"/></linearGradient>
</defs>
<ellipse cx="256" cy="470" rx="150" ry="24" fill="#073d47" opacity=".22"/>
<g>
<path d="M152 115 128 49 194 89 226 28 256 82 302 20 326 89 393 48 365 124" fill="#171c22" stroke="#0b0f13" stroke-width="14" stroke-linejoin="round"/>
<g stroke="#152b2c" stroke-width="14" stroke-linejoin="round">
 <ellipse cx="132" cy="409" rx="95" ry="43" fill="#4b9f46"/><ellipse cx="380" cy="409" rx="95" ry="43" fill="#4b9f46"/>
 <ellipse cx="256" cy="348" rx="126" ry="114" fill="url(#body)"/><path d="M155 312 209 289 256 346 303 289 357 312 372 432H140Z" fill="#1a2128"/>
 <path d="M108 219Q114 123 192 106Q256 68 320 106Q398 123 404 219Q413 299 338 328Q256 360 174 328Q99 299 108 219Z" fill="url(#body)"/>
 <ellipse cx="172" cy="144" rx="62" ry="70" fill="#76cf52"/><ellipse cx="340" cy="144" rx="62" ry="70" fill="#76cf52"/>
</g>
<path d="M119 136Q172 105 229 135L218 194Q167 213 126 183ZM283 135Q340 105 393 136L386 183Q345 213 294 194Z" fill="#171c22" stroke="#0b0f13" stroke-width="14"/>
<path d="M141 144Q174 125 208 144M305 144Q338 125 371 144" stroke="#6fefff" stroke-width="8" opacity=".7"/>
<path d="M210 257Q256 293 302 257" fill="none" stroke="#224d38" stroke-width="14"/>
<path d="M184 313 256 380 328 313" fill="none" stroke="#f15c69" stroke-width="15"/>
<path d="M345 309 421 244 454 274 371 340Z" fill="#f1c44a" stroke="#633f1d" stroke-width="12"/><ellipse cx="335" cy="350" rx="65" ry="49" fill="#e65263" stroke="#633f1d" stroke-width="12"/><circle cx="335" cy="350" r="20" fill="#ffe8a3" stroke="#633f1d" stroke-width="8"/></g>
</svg>